<svg xmlns="http://www.w3.org/2000/svg" width="512" height="512" viewBox="0 0 24 24" fill="none" stroke="#60a5fa" stroke-width="1.5" stroke-linecap="round" stroke-linejoin="round" >
    <path d="M12 5a3 3 0 1 0-5.993.142"/>
    <path d="M18 13a3 3 0 1 0-5.993.142"/>
    <path d="M11 18a3 3 0 1 0-5.993.142"/>
    <path d="M15 4.432A7.001 7.001 0 0 0 12 4a7 7 0 0 0-4.03 12.118"/>
    <path d="M19.143 14.857A7.001 7.001 0 0 0 18 13a7 7 0 0 0-4.03 12.118"/>
    <path d="M15.05 18.286A6.995 6.995 0 0 0 11 18a7 7 0 0 0-4.898 1.968"/>
    <path d="M4.1 12.1a3 3 0 1 0 5.8 1.8"/>
    <path d="M18.8 12.1a3 3 0 1 0-5.8 1.8"/>
    <path d="M6.007 8.858A3 3 0 1 0 5 13"/>
    <path d="M13.007 5.858A3 3 0 1 0 12 10"/>
    <path d="M13.9 8.1a3 3 0 1 0 5.8 1.8"/>
    <path d="M20.9 8.1a3 3 0 1 0-5.8 1.8"/>
    <path d="M17.993 15.142A3 3 0 1 0 19 10"/>
    <path d="M8.007 18.142A3 3 0 1 0 9 13"/>
</svg>
